<?xml version="1.0" encoding="UTF-8" standalone="no"?>
<!DOCTYPE svg PUBLIC "-//W3C//DTD SVG 1.1//EN" "http://www.w3.org/Graphics/SVG/1.1/DTD/svg11.dtd">
<svg width="236.25pt" height="472.5pt" viewBox="0 0 236.25 472.5" overflow="visible" version="1.1" xmlns="http://www.w3.org/2000/svg">
  <rect x="0" y="0" width="236" height="472" stroke="" stroke-width="0" fill="#FFFFFF" fill-opacity="1.0" />
  <path d="M100.5036,384.9352 C93.09807,385.869 84.18899,369.9285 78.05404,340.8303 C71.91908,311.7321 68.55824,269.4761 68.75512,234.3515 C68.55824,199.2268 71.91908,156.9709 78.05404,127.8727 C84.18899,98.77449 93.09807,82.83398 100.5036,83.76775 L135.8912,83.76775 C143.2967,82.83398 152.2058,98.77449 158.3407,127.8727 C164.4757,156.9709 167.8365,199.2268 167.6396,234.3515 C167.8365,269.4761 164.4757,311.7321 158.3407,340.8303 C152.2058,369.9285 143.2967,385.869 135.8912,384.9352 z M103.6255,376.3781 L132.7692,376.3781 C138.8681,377.2588 146.2052,362.2241 151.2577,334.7794 C156.3102,307.3348 159.078,267.4801 158.9159,234.3515 C159.078,201.2229 156.3102,161.3682 151.2577,133.9235 C146.2052,106.4789 138.8681,91.44421 132.7692,92.32491 L103.6255,92.32491 C97.52666,91.44421 90.18953,106.4789 85.13705,133.9235 C80.08456,161.3682 77.31672,201.2229 77.47886,234.3515 C77.31672,267.4801 80.08456,307.3348 85.13705,334.7794 C90.18953,362.2241 97.52666,377.2588 103.6255,376.3781 z" stroke="#000000" stroke-width="0" fill="#000000" fill-opacity="1.0" />
  <path d="M77.4631,460.4611 C60.41418,461.8632 39.90387,437.9277 25.78009,394.2351 C11.6563,350.5426 3.919044,287.093 4.372283,234.3515 C3.919044,181.6099 11.6563,118.1604 25.78009,74.46786 C39.90387,30.77533 60.41418,6.839784 77.4631,8.241896 L158.9317,8.241896 C175.9806,6.839784 196.4909,30.77533 210.6147,74.46786 C224.7385,118.1604 232.4757,181.6099 232.0225,234.3515 C232.4757,287.093 224.7385,350.5426 210.6147,394.2351 C196.4909,437.9277 175.9806,461.8632 158.9317,460.4611 z M79.77789,447.6121 L156.6169,447.6121 C172.697,448.9345 192.0417,426.3591 205.3629,385.1495 C218.6841,343.9398 225.9817,284.0959 225.5542,234.3515 C225.9817,184.6071 218.6841,124.7631 205.3629,83.55351 C192.0417,42.34387 172.697,19.76851 156.6169,21.09094 L79.77789,21.09094 C63.6978,19.76851 44.35303,42.34387 31.03185,83.55351 C17.71067,124.7631 10.4131,184.6071 10.84058,234.3515 C10.4131,284.0959 17.71067,343.9398 31.03185,385.1495 C44.35303,426.3591 63.6978,448.9345 79.77789,447.6121 z" stroke="#000000" stroke-width="0" fill="#000000" fill-opacity="1.0" />
  <path d="M77.4631,460.4611 L158.9317,460.4611 C175.9806,461.8632 196.4909,437.9277 210.6147,394.2351 C224.7385,350.5426 232.4757,287.093 232.0225,234.3515 C232.4757,181.6099 224.7385,118.1604 210.6147,74.46786 C196.4909,30.77533 175.9806,6.839784 158.9317,8.241896 L77.4631,8.241896 C60.41418,6.839784 39.90387,30.77533 25.78009,74.46786 C11.6563,118.1604 3.919044,181.6099 4.372283,234.3515 C3.919044,287.093 11.6563,350.5426 25.78009,394.2351 C39.90387,437.9277 60.41418,461.8632 77.4631,460.4611 z" stroke="#000000" stroke-width="6" fill-opacity="0" />
  <path d="M103.6255,376.3781 L132.7692,376.3781 C138.8681,377.2588 146.2052,362.2241 151.2577,334.7794 C156.3102,307.3348 159.078,267.4801 158.9159,234.3515 C159.078,201.2229 156.3102,161.3682 151.2577,133.9235 C146.2052,106.4789 138.8681,91.44421 132.7692,92.32491 L103.6255,92.32491 C97.52666,91.44421 90.18953,106.4789 85.13705,133.9235 C80.08456,161.3682 77.31672,201.2229 77.47886,234.3515 C77.31672,267.4801 80.08456,307.3348 85.13705,334.7794 C90.18953,362.2241 97.52666,377.2588 103.6255,376.3781 z" stroke="#000000" stroke-width="6" fill-opacity="0" />
  <path d="M100.5036,384.9352 L135.8912,384.9352 C143.2967,385.869 152.2058,369.9285 158.3407,340.8303 C164.4757,311.7321 167.8365,269.4761 167.6396,234.3515 C167.8365,199.2268 164.4757,156.9709 158.3407,127.8727 C152.2058,98.77449 143.2967,82.83398 135.8912,83.76775 L100.5036,83.76775 C93.09807,82.83398 84.18899,98.77449 78.05404,127.8727 C71.91908,156.9709 68.55824,199.2268 68.75512,234.3515 C68.55824,269.4761 71.91908,311.7321 78.05404,340.8303 C84.18899,369.9285 93.09807,385.869 100.5036,384.9352 z" stroke="#000000" stroke-width="6" fill-opacity="0" />
  <path d="M79.77789,447.6121 L156.6169,447.6121 C172.697,448.9345 192.0417,426.3591 205.3629,385.1495 C218.6841,343.9398 225.9817,284.0959 225.5542,234.3515 C225.9817,184.6071 218.6841,124.7631 205.3629,83.55351 C192.0417,42.34387 172.697,19.76851 156.6169,21.09094 L79.77789,21.09094 C63.6978,19.76851 44.35303,42.34387 31.03185,83.55351 C17.71067,124.7631 10.4131,184.6071 10.84058,234.3515 C10.4131,284.0959 17.71067,343.9398 31.03185,385.1495 C44.35303,426.3591 63.6978,448.9345 79.77789,447.6121 z" stroke="#000000" stroke-width="6" fill-opacity="0" />
</svg>