<?xml version="1.0" encoding="UTF-8" standalone="no"?>
<!DOCTYPE svg PUBLIC "-//W3C//DTD SVG 1.1//EN" "http://www.w3.org/Graphics/SVG/1.1/DTD/svg11.dtd">
<svg width="382.5pt" height="255pt" viewBox="0 0 382.5 255" overflow="visible" version="1.1" xmlns="http://www.w3.org/2000/svg">
  <rect x="0" y="0" width="382" height="255" stroke="" stroke-width="0" fill="#FFFFFF" fill-opacity="1.0" />
  <path d="M154.8622,192.7898 C139.0802,193.2093 120.094,186.047 107.0198,172.9728 C93.94555,159.8985 86.78325,140.9124 87.20281,125.1303 C86.78325,109.3483 93.94555,90.36215 107.0198,77.28791 C120.094,64.21367 139.0802,57.05137 154.8622,57.47093 L230.2768,57.47093 C246.0589,57.05137 265.045,64.21367 278.1193,77.28791 C291.1935,90.36215 298.3558,109.3483 297.9363,125.1303 C298.3558,140.9124 291.1935,159.8985 278.1193,172.9728 C265.045,186.047 246.0589,193.2093 230.2768,192.7898 z M156.5242,189.8076 L228.6149,189.8076 C243.7012,190.2086 261.8506,183.362 274.3486,170.8641 C286.8466,158.3661 293.6931,140.2167 293.2921,125.1303 C293.6931,110.044 286.8466,91.89461 274.3486,79.39663 C261.8506,66.89865 243.7012,60.05204 228.6149,60.4531 L156.5242,60.4531 C141.4378,60.05204 123.2885,66.89865 110.7905,79.39663 C98.29253,91.89461 91.44592,110.044 91.84698,125.1303 C91.44592,140.2167 98.29253,158.3661 110.7905,170.8641 C123.2885,183.362 141.4378,190.2086 156.5242,189.8076 z" stroke="#000000" stroke-width="0" fill="#000000" fill-opacity="1.0" />
  <path d="M155.603,191.4605 C140.1311,191.8718 121.5179,184.8503 108.7005,172.0329 C95.88313,159.2155 88.86153,140.6023 89.27285,125.1303 C88.86153,109.6584 95.88313,91.04521 108.7005,78.22783 C121.5179,65.41045 140.1311,58.38885 155.603,58.80017 L229.536,58.80017 C245.008,58.38885 263.6212,65.41045 276.4386,78.22783 C289.256,91.04521 296.2775,109.6584 295.8662,125.1303 C296.2775,140.6023 289.256,159.2155 276.4386,172.0329 C263.6212,184.8503 245.008,191.8718 229.536,191.4605 z M156.5242,189.8076 L228.6149,189.8076 C243.7012,190.2086 261.8506,183.362 274.3486,170.8641 C286.8466,158.3661 293.6931,140.2167 293.2921,125.1303 C293.6931,110.044 286.8466,91.89461 274.3486,79.39663 C261.8506,66.89865 243.7012,60.05204 228.6149,60.4531 L156.5242,60.4531 C141.4378,60.05204 123.2885,66.89865 110.7905,79.39663 C98.29253,91.89461 91.44592,110.044 91.84698,125.1303 C91.44592,140.2167 98.29253,158.3661 110.7905,170.8641 C123.2885,183.362 141.4378,190.2086 156.5242,189.8076 z" stroke="#000000" stroke-width="0" fill="#000000" fill-opacity="1.0" />
  <path d="M126.7145,243.2962 C99.15151,244.0289 65.99252,231.5201 43.15862,208.6862 C20.32472,185.8523 7.815903,152.6933 8.548652,125.1303 C7.815903,97.56738 20.32472,64.40839 43.15862,41.57449 C65.99252,18.74059 99.15151,6.231775 126.7145,6.964524 L258.4246,6.964524 C285.9875,6.231775 319.1465,18.74059 341.9805,41.57449 C364.8144,64.40839 377.3232,97.56738 376.5904,125.1303 C377.3232,152.6933 364.8144,185.8523 341.9805,208.6862 C319.1465,231.5201 285.9875,244.0289 258.4246,243.2962 z M128.3556,240.3515 L256.7835,240.3515 C283.6596,241.066 315.9923,228.8689 338.2572,206.604 C360.5221,184.3391 372.7191,152.0064 372.0047,125.1303 C372.7191,98.25425 360.5221,65.92157 338.2572,43.65668 C315.9923,21.3918 283.6596,9.194698 256.7835,9.909188 L128.3556,9.909188 C101.4795,9.194698 69.14679,21.3918 46.8819,43.65668 C24.61702,65.92157 12.41992,98.25425 13.13441,125.1303 C12.41992,152.0064 24.61702,184.3391 46.8819,206.604 C69.14679,228.8689 101.4795,241.066 128.3556,240.3515 z" stroke="#000000" stroke-width="0" fill="#000000" fill-opacity="1.0" />
  <path d="M156.5242,189.8076 L228.6149,189.8076 C243.7012,190.2086 261.8506,183.362 274.3486,170.8641 C286.8466,158.3661 293.6931,140.2167 293.2921,125.1303 C293.6931,110.044 286.8466,91.89461 274.3486,79.39663 C261.8506,66.89865 243.7012,60.05204 228.6149,60.4531 L156.5242,60.4531 C141.4378,60.05204 123.2885,66.89865 110.7905,79.39663 C98.29253,91.89461 91.44592,110.044 91.84698,125.1303 C91.44592,140.2167 98.29253,158.3661 110.7905,170.8641 C123.2885,183.362 141.4378,190.2086 156.5242,189.8076 z" stroke="#000000" stroke-width="6" fill-opacity="0" />
  <path d="M128.3556,240.3515 L256.7835,240.3515 C283.6596,241.066 315.9923,228.8689 338.2572,206.604 C360.5221,184.3391 372.7191,152.0064 372.0047,125.1303 C372.7191,98.25425 360.5221,65.92157 338.2572,43.65668 C315.9923,21.3918 283.6596,9.194698 256.7835,9.909188 L128.3556,9.909188 C101.4795,9.194698 69.14679,21.3918 46.8819,43.65668 C24.61702,65.92157 12.41992,98.25425 13.13441,125.1303 C12.41992,152.0064 24.61702,184.3391 46.8819,206.604 C69.14679,228.8689 101.4795,241.066 128.3556,240.3515 z" stroke="#000000" stroke-width="6" fill-opacity="0" />
  <path d="M154.8622,192.7898 L230.2768,192.7898 C246.0589,193.2093 265.045,186.047 278.1193,172.9728 C291.1935,159.8985 298.3558,140.9124 297.9363,125.1303 C298.3558,109.3483 291.1935,90.36215 278.1193,77.28791 C265.045,64.21367 246.0589,57.05137 230.2768,57.47093 L154.8622,57.47093 C139.0802,57.05137 120.094,64.21367 107.0198,77.28791 C93.94555,90.36215 86.78325,109.3483 87.20281,125.1303 C86.78325,140.9124 93.94555,159.8985 107.0198,172.9728 C120.094,186.047 139.0802,193.2093 154.8622,192.7898 z" stroke="#000000" stroke-width="6" fill-opacity="0" />
</svg>